<?xml version="1.0" encoding="UTF-8" standalone="no"?>
<!-- Created with Inkscape (http://www.inkscape.org/) -->

<svg
   xmlns:dc="http://purl.org/dc/elements/1.1/"
   xmlns:cc="http://creativecommons.org/ns#"
   xmlns:rdf="http://www.w3.org/1999/02/22-rdf-syntax-ns#"
   xmlns:svg="http://www.w3.org/2000/svg"
   xmlns="http://www.w3.org/2000/svg"
   xmlns:sodipodi="http://sodipodi.sourceforge.net/DTD/sodipodi-0.dtd"
   xmlns:inkscape="http://www.inkscape.org/namespaces/inkscape"
   width="8mm"
   height="8mm"
   viewBox="0 0 7.9999999 7.9999999"
   version="1.1"
   id="svg8"
   inkscape:export-filename="/home/dev/jt-512.png"
   inkscape:export-xdpi="1625.6"
   inkscape:export-ydpi="1625.6"
   inkscape:version="0.92.2 (5c3e80d, 2017-08-06)"
   sodipodi:docname="jt.svg">
  <defs
     id="defs2" />
  <sodipodi:namedview
     id="base"
     pagecolor="#ffffff"
     bordercolor="#666666"
     borderopacity="1.0"
     inkscape:pageopacity="0.0"
     inkscape:pageshadow="2"
     inkscape:zoom="11.2"
     inkscape:cx="-12.719586"
     inkscape:cy="1.1879579"
     inkscape:document-units="mm"
     inkscape:current-layer="layer1"
     showgrid="false"
     fit-margin-top="0"
     fit-margin-left="0"
     fit-margin-right="0"
     fit-margin-bottom="0"
     showguides="true"
     inkscape:guide-bbox="true"
     inkscape:window-width="1920"
     inkscape:window-height="1027"
     inkscape:window-x="-8"
     inkscape:window-y="-8"
     inkscape:window-maximized="1">
    <sodipodi:guide
       position="8.5280875,-2.173363"
       orientation="0,1"
       id="guide3736"
       inkscape:locked="false" />
  </sodipodi:namedview>
  <metadata
     id="metadata5">
    <rdf:RDF>
      <cc:Work
         rdf:about="">
        <dc:format>image/svg+xml</dc:format>
        <dc:type
           rdf:resource="http://purl.org/dc/dcmitype/StillImage" />
        <dc:title></dc:title>
      </cc:Work>
    </rdf:RDF>
  </metadata>
  <g
     inkscape:label="Layer 1"
     inkscape:groupmode="layer"
     id="layer1"
     transform="translate(-88.994423,-45.82868)">
    <path
       inkscape:connector-curvature="0"
       id="path3717"
       style="font-style:normal;font-variant:normal;font-weight:normal;font-stretch:normal;font-size:medium;line-height:1.25;font-family:'Anonymous Pro';-inkscape-font-specification:'Anonymous Pro';letter-spacing:0px;word-spacing:0px;fill:#e5580f;fill-opacity:0.94117647;stroke:#893504;stroke-width:0.22262737;stroke-linejoin:round;stroke-miterlimit:4;stroke-dasharray:none;stroke-opacity:1;paint-order:normal"
       d="m 92.627126,46.777882 h -0.714851 v -0.837891 h 0.714851 z m -1.823792,6.939484 c -0.80932,0 -1.375186,-0.399319 -1.6976,-1.197952 l 0.518162,-0.426999 c 0.118439,0.30048 0.273064,0.531768 0.463881,0.693868 0.194105,0.1621 0.432626,0.243149 0.715557,0.243149 0.223716,0 0.411241,-0.03951 0.56258,-0.118612 0.151333,-0.07514 0.269771,-0.183844 0.355308,-0.326168 0.08883,-0.142337 0.151335,-0.31432 0.187524,-0.515957 0.03948,-0.201631 0.05921,-0.432916 0.05921,-0.69386 v -2.772914 0 -0.693863 h 0.676076 v 3.466777 c 0,0.711657 -0.156271,1.279002 -0.468814,1.702042 -0.309253,0.426994 -0.766553,0.640489 -1.371897,0.640489 z"
       sodipodi:nodetypes="cccccccccscccsccccsccc" />
    <path
       inkscape:connector-curvature="0"
       id="path3715"
       style="font-style:normal;font-variant:normal;font-weight:normal;font-stretch:normal;font-size:medium;line-height:1.25;font-family:'Anonymous Pro';-inkscape-font-specification:'Anonymous Pro';letter-spacing:0px;word-spacing:0px;fill:#e5580f;fill-opacity:0.94117647;stroke:#893504;stroke-width:0.22262737;stroke-linejoin:round;stroke-miterlimit:4;stroke-dasharray:none;stroke-opacity:1;paint-order:normal"
       d="m 96.88311,51.823745 c -0.05263,0.579922 -0.243454,1.041496 -0.572447,1.384712 -0.325703,0.33927 -0.733653,0.508909 -1.223851,0.508909 -0.269773,0 -0.516519,-0.05324 -0.740234,-0.159775 -0.223715,-0.106519 -0.414528,-0.254456 -0.572447,-0.443817 -0.157915,-0.189362 -0.281286,-0.416202 -0.370117,-0.680517 -0.08553,-0.268264 -0.128305,-0.560199 -0.128305,-0.875805 v -2.799006 0 -0.692355 0 -2.1261 h 0.676078 v 2.1261 h 1.959149 v 0.692355 h -1.959149 v 2.799006 c 0,0.201199 0.02633,0.390562 0.07896,0.568091 0.05592,0.177527 0.131595,0.333355 0.227005,0.467483 0.09869,0.134138 0.217135,0.240652 0.35531,0.319547 0.138176,0.07497 0.296093,0.112441 0.473749,0.112441 0.335573,0 0.615218,-0.124266 0.838929,-0.372801 0.227007,-0.252485 0.356959,-0.577952 0.389859,-0.976405 z"
       sodipodi:nodetypes="ccscscsccccccccccscccsccc" />
    <flowRoot
       xml:space="preserve"
       id="flowRoot3707"
       style="font-style:normal;font-weight:normal;font-size:40px;line-height:1.25;font-family:sans-serif;letter-spacing:0px;word-spacing:0px;fill:#000000;fill-opacity:1;stroke:none"
       transform="scale(0.26458333)"><flowRegion
         id="flowRegion3709"><rect
           id="rect3711"
           width="227.28432"
           height="167.68532"
           x="225.26402"
           y="92.164085" /></flowRegion><flowPara
         id="flowPara3713" /></flowRoot>  </g>
</svg>
