<?xml version="1.0" encoding="UTF-8" standalone="no"?>
<!-- Created with Inkscape (http://www.inkscape.org/) -->

<svg
   xmlns:dc="http://purl.org/dc/elements/1.1/"
   xmlns:cc="http://creativecommons.org/ns#"
   xmlns:rdf="http://www.w3.org/1999/02/22-rdf-syntax-ns#"
   xmlns:svg="http://www.w3.org/2000/svg"
   xmlns="http://www.w3.org/2000/svg"
   xmlns:sodipodi="http://sodipodi.sourceforge.net/DTD/sodipodi-0.dtd"
   xmlns:inkscape="http://www.inkscape.org/namespaces/inkscape"
   width="8mm"
   height="8mm"
   viewBox="0 0 7.9999999 7.9999999"
   version="1.1"
   id="svg8"
   inkscape:export-filename="/home/dev/jt-512.png"
   inkscape:export-xdpi="1625.6"
   inkscape:export-ydpi="1625.6"
   inkscape:version="0.92.2 (5c3e80d, 2017-08-06)"
   sodipodi:docname="jt.svg">
  <defs
     id="defs2" />
  <sodipodi:namedview
     id="base"
     pagecolor="#ffffff"
     bordercolor="#666666"
     borderopacity="1.0"
     inkscape:pageopacity="0.0"
     inkscape:pageshadow="2"
     inkscape:zoom="11.2"
     inkscape:cx="34.766547"
     inkscape:cy="1.1879579"
     inkscape:document-units="mm"
     inkscape:current-layer="layer1"
     showgrid="false"
     fit-margin-top="0"
     fit-margin-left="0"
     fit-margin-right="0"
     fit-margin-bottom="0"
     showguides="true"
     inkscape:guide-bbox="true"
     inkscape:window-width="1853"
     inkscape:window-height="1025"
     inkscape:window-x="67"
     inkscape:window-y="27"
     inkscape:window-maximized="1">
    <sodipodi:guide
       position="8.5280875,-2.173363"
       orientation="0,1"
       id="guide3736"
       inkscape:locked="false" />
  </sodipodi:namedview>
  <metadata
     id="metadata5">
    <rdf:RDF>
      <cc:Work
         rdf:about="">
        <dc:format>image/svg+xml</dc:format>
        <dc:type
           rdf:resource="http://purl.org/dc/dcmitype/StillImage" />
        <dc:title></dc:title>
      </cc:Work>
    </rdf:RDF>
  </metadata>
  <g
     inkscape:label="Layer 1"
     inkscape:groupmode="layer"
     id="layer1"
     transform="translate(-88.994423,-45.82868)">
    <path
       inkscape:connector-curvature="0"
       id="path3717"
       style="font-style:normal;font-variant:normal;font-weight:normal;font-stretch:normal;font-size:medium;line-height:1.25;font-family:'Anonymous Pro';-inkscape-font-specification:'Anonymous Pro';letter-spacing:0px;word-spacing:0px;fill:#000000;fill-opacity:1;stroke:none;stroke-width:0.2849111"
       d="M 92.616613,46.690556 H 91.8813 V 45.82868 h 0.735313 z m -1.875996,7.138124 c -0.832488,0 -1.414551,-0.41075 -1.746194,-1.232243 l 0.532994,-0.439222 c 0.12183,0.309081 0.28088,0.546989 0.47716,0.713729 0.199661,0.166741 0.445009,0.25011 0.73604,0.25011 0.230119,0 0.423012,-0.04064 0.578683,-0.122008 0.155665,-0.07729 0.277493,-0.189106 0.365479,-0.335504 0.09137,-0.146411 0.155667,-0.323317 0.192892,-0.530726 0.04061,-0.207402 0.0609,-0.445308 0.0609,-0.713721 v -2.852288 0 -0.713724 H 92.634 v 3.566012 c 0,0.732027 -0.160745,1.315613 -0.482234,1.750762 -0.318105,0.439216 -0.788495,0.658823 -1.411168,0.658823 z"
       sodipodi:nodetypes="cccccccccscccsccccsccc" />
    <path
       inkscape:connector-curvature="0"
       id="path3715"
       style="font-style:normal;font-variant:normal;font-weight:normal;font-stretch:normal;font-size:medium;line-height:1.25;font-family:'Anonymous Pro';-inkscape-font-specification:'Anonymous Pro';letter-spacing:0px;word-spacing:0px;fill:#000000;fill-opacity:1;stroke:none;stroke-width:0.28460133"
       d="m 96.994423,51.880854 c -0.05414,0.596523 -0.250422,1.071309 -0.588833,1.424349 -0.335025,0.348982 -0.754653,0.523477 -1.258883,0.523477 -0.277495,0 -0.531304,-0.05477 -0.761422,-0.164349 C 94.155166,53.554763 93.95889,53.402592 93.796451,53.20781 93.634017,53.013028 93.507114,52.779695 93.41574,52.507814 93.32776,52.231871 93.283762,51.931579 93.283762,51.606939 v -2.879127 0 -0.712173 0 -2.186959 h 0.695431 v 2.186959 h 2.015229 v 0.712173 h -2.015229 v 2.879127 c 0,0.206958 0.02708,0.401741 0.08122,0.584352 0.05752,0.182609 0.135362,0.342897 0.233503,0.480865 0.101518,0.137977 0.223351,0.247541 0.365481,0.328694 0.142131,0.07712 0.304568,0.115659 0.487309,0.115659 0.345179,0 0.632828,-0.127823 0.862944,-0.383472 0.233504,-0.259712 0.367177,-0.594496 0.401018,-1.004354 z"
       sodipodi:nodetypes="ccscscsccccccccccscccsccc" />
    <flowRoot
       xml:space="preserve"
       id="flowRoot3707"
       style="font-style:normal;font-weight:normal;font-size:40px;line-height:1.25;font-family:sans-serif;letter-spacing:0px;word-spacing:0px;fill:#000000;fill-opacity:1;stroke:none"
       transform="scale(0.26458333)"><flowRegion
         id="flowRegion3709"><rect
           id="rect3711"
           width="227.28432"
           height="167.68532"
           x="225.26402"
           y="92.164085" /></flowRegion><flowPara
         id="flowPara3713"></flowPara></flowRoot>  </g>
</svg>
